<?xml version="1.0" standalone="no"?>
<!DOCTYPE svg PUBLIC "-//W3C//DTD SVG 20010904//EN"
 "http://www.w3.org/TR/2001/REC-SVG-20010904/DTD/svg10.dtd">
<svg version="1.0" xmlns="http://www.w3.org/2000/svg"
 width="500.000000pt" height="500.000000pt" viewBox="0 0 500.000000 500.000000"
 preserveAspectRatio="xMidYMid meet">

<g transform="translate(0.000000,500.000000) scale(0.100000,-0.100000)"
fill="#000000" stroke="none">
<path d="M325 4861 c-61 -27 -111 -89 -125 -152 -8 -40 -10 -621 -8 -2239 l3
-2185 22 -40 c25 -47 54 -75 103 -101 34 -18 116 -19 2180 -19 l2145 0 42 22
c48 26 89 76 109 130 18 50 21 4351 3 4434 -13 61 -64 123 -124 150 -38 18
-131 19 -2175 19 -2044 0 -2137 -1 -2175 -19z m3575 -1186 c181 -35 422 -128
499 -193 l33 -28 -112 -224 c-62 -124 -113 -226 -115 -228 -1 -1 -40 18 -86
42 -46 25 -133 62 -194 82 -103 36 -118 38 -230 39 -105 0 -126 -3 -170 -23
-63 -29 -93 -57 -116 -107 -37 -79 -19 -159 48 -215 51 -43 207 -127 353 -192
240 -106 331 -160 463 -275 133 -117 195 -216 225 -362 31 -152 -13 -392 -99
-538 -54 -92 -161 -191 -265 -245 -174 -91 -348 -130 -579 -130 -282 0 -500
55 -744 190 l-93 52 68 -78 c37 -42 77 -87 88 -99 l19 -23 -399 1 -399 0 -460
532 -460 532 -3 -533 -2 -532 -290 0 -290 0 0 1265 0 1265 290 0 290 0 2 -511
3 -511 429 511 428 511 350 0 350 0 -44 -52 c-23 -28 -251 -297 -506 -597
-254 -300 -461 -548 -460 -552 4 -9 889 -1009 894 -1009 1 0 60 96 130 213 70
116 132 217 138 224 8 9 29 -2 86 -44 93 -68 332 -186 422 -207 82 -20 172
-20 259 -2 159 34 227 111 217 246 -8 115 -56 154 -409 329 -165 82 -283 148
-332 185 -137 103 -224 219 -273 362 -52 153 -31 366 51 522 108 207 335 367
590 418 88 17 288 12 405 -11z"/>
</g>
</svg>
